PathFileType	4	(X/Y/Z)	/Users/itak/Documents/Research/Walk-IL/dataset/trc/00334_00011.trc
DataRate	CameraRate	NumFrames	NumMarkers	Units	OrigDataRate	OrigDataStartFrame	OrigNumFrames
100.000000	100.000000	4	54	mm	100.000000	145	582
Frame#	Time	RPSI			LPSI			L3			STRN			T10			C7			CLAV			RBAK			LBAK			LSHO			LUPA			LAEL			LAOL			LWTS			LWPS			LFRA			LHPS			LHTS			RSHO			RUPA			RAEL			RAOL			RWTS			RWPS			RFRA			RIFD			RHTS			RHPS			RBHD			LFHD			RFHD			LBHD			LHIP			RHIP			RASI			LASI			LKNE			LTHI			LANK			LTIP			LTOE			LMT1			LMT5			LHEE			RKNE			RTHI			RANK			RTIP			RTOE			RMT1			RMT5			RHEE			LIFD			*53			
		X1	Y1	Z1	X2	Y2	Z2	X3	Y3	Z3	X4	Y4	Z4	X5	Y5	Z5	X6	Y6	Z6	X7	Y7	Z7	X8	Y8	Z8	X9	Y9	Z9	X10	Y10	Z10	X11	Y11	Z11	X12	Y12	Z12	X13	Y13	Z13	X14	Y14	Z14	X15	Y15	Z15	X16	Y16	Z16	X17	Y17	Z17	X18	Y18	Z18	X19	Y19	Z19	X20	Y20	Z20	X21	Y21	Z21	X22	Y22	Z22	X23	Y23	Z23	X24	Y24	Z24	X25	Y25	Z25	X26	Y26	Z26	X27	Y27	Z27	X28	Y28	Z28	X29	Y29	Z29	X30	Y30	Z30	X31	Y31	Z31	X32	Y32	Z32	X33	Y33	Z33	X34	Y34	Z34	X35	Y35	Z35	X36	Y36	Z36	X37	Y37	Z37	X38	Y38	Z38	X39	Y39	Z39	X40	Y40	Z40	X41	Y41	Z41	X42	Y42	Z42	X43	Y43	Z43	X44	Y44	Z44	X45	Y45	Z45	X46	Y46	Z46	X47	Y47	Z47	X48	Y48	Z48	X49	Y49	Z49	X50	Y50	Z50	X51	Y51	Z51	X52	Y52	Z52	X53	Y53	Z53	X54	Y54	Z54	

146	1.45	852.642333984375	972.500732421875	174.6933898925781	850.8681030273438	972.6270751953125	46.14409637451172	850.0194702148438	1025.325439453125	114.6416625976562	1070.639404296875	1214.85986328125	92.99684143066406	833.5104370117188	1146.27294921875	103.3823547363281	866.9651489257812	1394.428344726562	82.14748382568359	1025.142822265625	1339.206298828125	86.78357696533203	823.6097412109375	1257.162353515625	155.1147613525391	858.494384765625	1354.392333984375	-18.99918746948242	943.5883178710938	1373.095581054688	-76.12574768066406	934.2706298828125	1250.636596679688	-141.1175537109375	967.4789428710938	1046.844604492188	-143.7802886962891	899.9227905273438	1032.622802734375	-94.05585479736328	1066.565795898438	808.9769897460938	-78.1605224609375	1036.0537109375	795.6063232421875	-138.7519378662109	988.6995849609375	943.4942016601562	-144.7015533447266	1034.067993164062	725.153564453125	-131.4734344482422	1083.037719726562	730.960205078125	-90.75531768798828	930.814208984375	1385.584838867188	244.8542327880859	927.4669799804688	1320.9404296875	312.0280151367188	965.3074340820312	1052.303588867188	338.3973388671875	911.4744873046875	1043.201782226562	260.9748840332031	1080.884399414062	834.164794921875	260.2543640136719	1062.274169921875	815.2686157226562	332.4736328125	997.8455810546875	987.0146484375	339.9235229492188	1105.030395507812	659.5170288085938	263.9325866699219	1116.1630859375	733.0977783203125	264.9585876464844	1079.016967773438	732.2062377929688	324.7941284179688	891.5604248046875	1596.995239257812	159.7646484375	1060.5283203125	1624.4443359375	40.64848709106445	1051.06787109375	1625.4619140625	141.1781005859375	879.109130859375	1587.989135742188	15.61362361907959	932.4235229492188	912.5299072265625	-59.31274795532227	934.5409545898438	918.06298828125	282.1067504882812	1037.133666992188	947.0877685546875	235.5741271972656	1055.116943359375	940.3858642578125	-5.044543266296387	976.6897583007812	453.4629211425781	-43.38520812988281	977.1488037109375	594.3867797851562	-53.89959716796875	877.6239013671875	41.2446403503418	-23.38958358764648	927.4279174804688	239.5094451904297	-45.35952377319336	1084.9228515625	31.16338539123535	31.44236373901367	1015.184936523438	20.49561500549316	73.25825500488281	1002.475219726562	34.80916213989258	-38.79905319213867	845.4411010742188	36.03602600097656	44.05498123168945	973.9014892578125	452.1069030761719	247.0067291259766	1009.549438476562	710.272705078125	276.0529479980469	892.7451782226562	43.80152893066406	217.991943359375	974.1556396484375	332.2536010742188	235.4970855712891	1082.616821289062	32.51634216308594	156.81396484375	1024.139892578125	28.27921867370605	117.9274749755859	993.1746215820312	28.70453453063965	231.5988006591797	840.416015625	46.01190567016602	172.5654602050781	1074.386108398438	648.8301391601562	-69.53958892822266	nan	nan	nan	
147	1.46	851.6068115234375	972.5391845703125	175.0849914550781	850.0289916992188	972.7543334960938	46.50702667236328	849.1129760742188	1025.683959960938	115.1034469604492	1070.309204101562	1214.8369140625	93.29289245605469	833.1550903320312	1146.682739257812	103.960693359375	867.04052734375	1394.806396484375	82.60752868652344	1025.1201171875	1339.29541015625	87.02885437011719	823.4929809570312	1257.620361328125	155.6942596435547	858.3544311523438	1354.662963867188	-18.5443115234375	943.3823852539062	1373.203125	-75.76338195800781	933.7735595703125	1250.810913085938	-140.7618560791016	966.8363647460938	1046.973022460938	-143.5965270996094	899.342041015625	1032.813232421875	-93.78864288330078	1066.237915039062	809.2421264648438	-78.11306762695312	1035.584228515625	795.8082885742188	-138.6393890380859	988.0601196289062	943.6205444335938	-144.5451812744141	1033.672607421875	725.3872680664062	-131.2957458496094	1082.701782226562	731.1175537109375	-90.67137145996094	931.0936889648438	1385.933349609375	245.1788787841797	927.7943725585938	1321.313232421875	312.4028015136719	965.4491577148438	1052.750366210938	338.9171142578125	911.3231201171875	1043.552978515625	261.8812866210938	1080.341552734375	834.3884887695312	260.2878112792969	1062.224609375	815.5004272460938	332.5175476074219	997.9229736328125	987.4107055664062	340.3368530273438	1104.460693359375	659.7042236328125	263.8509521484375	1115.630004882812	733.2530517578125	264.7658996582031	1078.853149414062	732.4063110351562	324.8788146972656	891.4979248046875	1597.293823242188	159.8519134521484	1060.521850585938	1624.552368164062	40.58308029174805	1051.051025390625	1625.704956054688	141.1781158447266	879.0742797851562	1588.0595703125	15.69601726531982	931.28466796875	912.6522216796875	-59.02853393554688	933.424560546875	918.061767578125	282.5616149902344	1035.986450195312	946.978271484375	236.0278167724609	1054.165893554688	940.3887939453125	-4.5723876953125	977.9373168945312	453.4143981933594	-43.03924179077148	977.5985717773438	594.39697265625	-53.49312591552734	877.6801147460938	41.26370620727539	-23.44676399230957	928.2982788085938	239.5514373779297	-45.22414016723633	1084.93212890625	31.15003776550293	31.43815040588379	1015.198669433594	20.50907135009766	73.24813842773438	1002.518005371094	34.75466918945312	-38.81609344482422	845.483642578125	36.15927886962891	44.00761413574219	975.0975341796875	452.0042114257812	246.8316650390625	1009.222229003906	710.2609252929688	276.3093872070312	892.8521118164062	44.01062393188477	217.8201141357422	975.3158569335938	331.9955749511719	235.1928863525391	1082.687866210938	32.47149658203125	156.8115081787109	1024.159301757812	28.21279716491699	117.8349227905273	993.1915893554688	28.71887588500977	231.5571899414062	840.5833129882812	46.2684440612793	172.4070739746094	1074.227416992188	649.0498657226562	-69.30411529541016	nan	nan	nan	
148	1.47	850.4968872070312	972.5538940429688	175.5242462158203	849.0540771484375	972.88818359375	46.88955307006836	848.1339721679688	1026.070678710938	115.6248016357422	1069.976318359375	1214.795532226562	93.58853149414062	832.8359375	1147.08935546875	104.6346664428711	867.127685546875	1395.165161132812	83.14728546142578	1025.096801757812	1339.363891601562	87.30602264404297	823.4495239257812	1258.078247070312	156.3849639892578	858.2008666992188	1354.925048828125	-18.00703430175781	943.1285400390625	1373.288452148438	-75.33702850341797	933.2095336914062	1250.963745117188	-140.3537445068359	966.0907592773438	1047.080078125	-143.4024200439453	898.6935424804688	1032.985717773438	-93.48162841796875	1065.860717773438	809.5199584960938	-78.10281372070312	1035.042236328125	795.9949340820312	-138.5195617675781	987.3391723632812	943.7294311523438	-144.3641052246094	1033.26611328125	725.610107421875	-131.1262664794922	1082.308837890625	731.26123046875	-90.54473876953125	931.427978515625	1386.297485351562	245.5581359863281	928.176513671875	1321.71044921875	312.8298645019531	965.5960693359375	1053.190673828125	339.4867553710938	911.2250366210938	1043.923461914062	262.8688354492188	1079.776000976562	834.6018676757812	260.3147583007812	1062.168334960938	815.7504272460938	332.5850219726562	998.0023193359375	987.7891845703125	340.7792663574219	1103.897583007812	659.9286499023438	263.7396545410156	1115.055541992188	733.42431640625	264.6094665527344	1078.694580078125	732.5951538085938	324.9620056152344	891.4597778320312	1597.575805664062	159.955322265625	1060.509155273438	1624.62255859375	40.55188751220703	1051.041870117188	1625.9267578125	141.1833038330078	879.03271484375	1588.108520507812	15.81040000915527	930.0321655273438	912.7849731445312	-58.72266006469727	932.213623046875	918.022705078125	283.0405578613281	1034.7626953125	946.8228149414062	236.5189514160156	1053.124389648438	940.37841796875	-4.054921627044678	979.2372436523438	453.3480834960938	-42.63701629638672	978.0567626953125	594.3715209960938	-53.06082916259766	877.7390747070312	41.28908157348633	-23.50284004211426	929.205078125	239.5995635986328	-45.06523132324219	1084.944213867188	31.13832664489746	31.4341926574707	1015.213806152344	20.52254295349121	73.23891448974609	1002.560424804688	34.70479583740234	-38.83122634887695	845.5267333984375	36.28568267822266	43.96252822875977	976.3235473632812	451.8896789550781	246.6753387451172	1008.830688476562	710.1865234375	276.6132507324219	892.9702758789062	44.21097183227539	217.6504821777344	976.5120239257812	331.7214965820312	234.8826599121094	1082.76806640625	32.42534255981445	156.8060607910156	1024.176025390625	28.14932632446289	117.741569519043	993.2116088867188	28.73942184448242	231.5057678222656	840.7369384765625	46.52847290039062	172.2384643554688	1074.084350585938	649.243896484375	-69.05662536621094	nan	nan	nan	
149	1.48	849.3095703125	972.5411376953125	176.0183715820312	847.9451904296875	973.0289916992188	47.29824447631836	847.0762329101562	1026.484619140625	116.2155609130859	1069.635620117188	1214.724487304688	93.89215087890625	832.5389404296875	1147.48828125	105.4115371704102	867.223876953125	1395.499389648438	83.77377319335938	1025.068603515625	1339.39892578125	87.61900329589844	823.47021484375	1258.538452148438	157.1923065185547	858.0247802734375	1355.169799804688	-17.38079643249512	942.8233032226562	1373.345336914062	-74.84663391113281	932.5751953125	1251.087280273438	-139.8856811523438	965.2400512695312	1047.163940429688	-143.1892547607422	897.9647827148438	1033.126953125	-93.12896728515625	1065.433715820312	809.8047485351562	-78.12907409667969	1034.428100585938	796.156494140625	-138.3889007568359	986.5308837890625	943.815673828125	-144.1633911132812	1032.847045898438	725.8165893554688	-130.96142578125	1081.872924804688	731.4133911132812	-90.38917541503906	931.8124389648438	1386.673828125	245.9939117431641	928.6155395507812	1322.124633789062	313.321533203125	965.7597045898438	1053.618041992188	340.1263732910156	911.1417236328125	1044.310546875	263.9151000976562	1079.19921875	834.8092041015625	260.3358154296875	1062.106323242188	816.014404296875	332.6849670410156	998.0836791992188	988.1410522460938	341.2572937011719	1103.357666015625	660.1945190429688	263.6124877929688	1114.45556640625	733.6104125976562	264.4992980957031	1078.544799804688	732.7794189453125	325.0437622070312	891.442138671875	1597.826293945312	160.0734558105469	1060.487182617188	1624.657958984375	40.55538558959961	1051.038330078125	1626.124877929688	141.1959075927734	878.9840087890625	1588.130004882812	15.96041202545166	928.7011108398438	912.9277954101562	-58.38922882080078	930.9124755859375	917.9427490234375	283.5466613769531	1033.469970703125	946.6249389648438	237.03564453125	1051.990600585938	940.3529663085938	-3.487993240356445	980.5789794921875	453.2582702636719	-42.17488098144531	978.5237426757812	594.310302734375	-52.62318420410156	877.7996826171875	41.32077789306641	-23.56142425537109	930.1371459960938	239.6456909179688	-44.88594436645508	1084.958618164062	31.12737274169922	31.43094253540039	1015.227478027344	20.5400276184082	73.22737121582031	1002.6015625	34.65727615356445	-38.84627532958984	845.5682373046875	36.41260528564453	43.91727447509766	977.585205078125	451.7550354003906	246.5387268066406	1008.396240234375	710.0435180664062	276.9572143554688	893.0983276367188	44.39934158325195	217.4854125976562	977.7384643554688	331.4376831054688	234.5641784667969	1082.859008789062	32.37896347045898	156.7962646484375	1024.192504882812	28.08783912658691	117.6466217041016	993.2376708984375	28.77156829833984	231.4391937255859	840.871337890625	46.78862380981445	172.0639801025391	1073.954956054688	649.4131469726562	-68.80804443359375	nan	nan	nan	
